<svg width="21" height="20" viewBox="0 0 21 20" fill="none" xmlns="http://www.w3.org/2000/svg">
<path d="M20.3848 4.15234V7.1875H0.615234V4.15234C0.615234 3.47272 1.16607 2.92188 1.8457 2.92188H19.1543C19.8339 2.92188 20.3848 3.47272 20.3848 4.15234Z" stroke="#5D9B99" stroke-miterlimit="10" stroke-linecap="round" stroke-linejoin="round"/>
<path d="M3.9375 4.5625V1.28125V4.5625Z" fill="#5D9B99"/>
<path d="M3.9375 4.5625V1.28125" stroke="#5D9B99" stroke-miterlimit="10" stroke-linecap="round" stroke-linejoin="round"/>
<path d="M10.5 4.5625V1.28125V4.5625Z" fill="#5D9B99"/>
<path d="M10.5 4.5625V1.28125" stroke="#5D9B99" stroke-miterlimit="10" stroke-linecap="round" stroke-linejoin="round"/>
<path d="M17.0625 4.5625V1.28125V4.5625Z" fill="#5D9B99"/>
<path d="M17.0625 4.5625V1.28125" stroke="#5D9B99" stroke-miterlimit="10" stroke-linecap="round" stroke-linejoin="round"/>
<path d="M4.59375 10.4688H5.90625H4.59375Z" fill="#5D9B99"/>
<path d="M4.59375 10.4688H5.90625" stroke="#5D9B99" stroke-miterlimit="10" stroke-linecap="round" stroke-linejoin="round"/>
<path d="M4.59375 13.0938H5.90625H4.59375Z" fill="#5D9B99"/>
<path d="M4.59375 13.0938H5.90625" stroke="#5D9B99" stroke-miterlimit="10" stroke-linecap="round" stroke-linejoin="round"/>
<path d="M4.59375 15.7188H5.90625H4.59375Z" fill="#5D9B99"/>
<path d="M4.59375 15.7188H5.90625" stroke="#5D9B99" stroke-miterlimit="10" stroke-linecap="round" stroke-linejoin="round"/>
<path d="M9.84375 10.4688H11.1562H9.84375Z" fill="#5D9B99"/>
<path d="M9.84375 10.4688H11.1562" stroke="#5D9B99" stroke-miterlimit="10" stroke-linecap="round" stroke-linejoin="round"/>
<path d="M9.84375 13.0938H11.1562H9.84375Z" fill="#5D9B99"/>
<path d="M9.84375 13.0938H11.1562" stroke="#5D9B99" stroke-miterlimit="10" stroke-linecap="round" stroke-linejoin="round"/>
<path d="M9.84375 15.7188H11.1562H9.84375Z" fill="#5D9B99"/>
<path d="M9.84375 15.7188H11.1562" stroke="#5D9B99" stroke-miterlimit="10" stroke-linecap="round" stroke-linejoin="round"/>
<path d="M15.0938 10.4688H16.4062H15.0938Z" fill="#5D9B99"/>
<path d="M15.0938 10.4688H16.4062" stroke="#5D9B99" stroke-miterlimit="10" stroke-linecap="round" stroke-linejoin="round"/>
<path d="M15.0938 13.0938H16.4062H15.0938Z" fill="#5D9B99"/>
<path d="M15.0938 13.0938H16.4062" stroke="#5D9B99" stroke-miterlimit="10" stroke-linecap="round" stroke-linejoin="round"/>
<path d="M15.0938 15.7188H16.4062H15.0938Z" fill="#5D9B99"/>
<path d="M15.0938 15.7188H16.4062" stroke="#5D9B99" stroke-miterlimit="10" stroke-linecap="round" stroke-linejoin="round"/>
<path d="M19.1543 19H1.8457C1.16616 19 0.615234 18.4491 0.615234 17.7695V4.15235C0.615234 3.4728 1.16616 2.92188 1.8457 2.92188H19.1543C19.8338 2.92188 20.3848 3.4728 20.3848 4.15235V17.7695C20.3848 18.4491 19.8338 19 19.1543 19Z" stroke="#5D9B99" stroke-miterlimit="10" stroke-linecap="round" stroke-linejoin="round"/>
</svg>
