<svg width="31" height="35" viewBox="0 0 31 35" fill="none" xmlns="http://www.w3.org/2000/svg">
<path d="M28.4446 16.2199H28.3132V8.23841C28.3132 7.22105 27.917 6.26466 27.1977 5.54533L22.7679 1.11555C22.0485 0.396153 21.0921 0 20.0748 0H6.49545C4.39531 0 2.68681 1.7085 2.68681 3.80864V16.2199H2.5553C1.14631 16.2199 0 17.3662 0 18.7752V27.2635C0 28.6725 1.14631 29.8188 2.5553 29.8188H2.68674V30.7213C2.68674 32.8214 4.39525 34.5299 6.49538 34.5299H24.5046C26.6047 34.5299 28.3132 32.8214 28.3132 30.7213V29.8188H28.4446C29.8536 29.8188 31 28.6725 31 27.2635V18.7754C31 17.3663 29.8537 16.2199 28.4446 16.2199ZM22.1774 3.38571L25.1298 6.33811H22.4036C22.3436 6.33805 22.2861 6.31421 22.2437 6.27182C22.2013 6.22942 22.1775 6.17194 22.1774 6.11198V3.38571ZM4.70952 3.80864C4.70952 2.82385 5.5106 2.02278 6.49538 2.02278H20.0748C20.1015 2.02278 20.1281 2.02359 20.1546 2.02474V6.11191C20.1546 7.35203 21.1636 8.36082 22.4036 8.36082H26.2904V16.2199H4.70952V3.80864ZM26.2904 30.7215C26.2904 31.7063 25.4893 32.5073 24.5046 32.5073H6.49538C5.51066 32.5073 4.70952 31.7063 4.70952 30.7215V29.819H26.2903V30.7215H26.2904ZM28.9773 27.2636C28.9772 27.5572 28.7383 27.7961 28.4446 27.7961H2.55523C2.26159 27.7961 2.02271 27.5572 2.02271 27.2636V18.7754C2.02271 18.4817 2.26159 18.2429 2.55523 18.2429H28.4446C28.7383 18.2429 28.9772 18.4817 28.9772 18.7754L28.9773 27.2636Z" fill="white"/>
<path d="M11.9349 19.8239C11.4881 19.4393 10.8938 19.2471 10.1525 19.2471H8.00123C7.82103 19.2471 7.67549 19.2956 7.56468 19.3926C7.45374 19.4897 7.39844 19.604 7.39844 19.7355V26.3454C7.39844 26.5049 7.47802 26.6278 7.63745 26.7144C7.79668 26.8011 7.98727 26.8444 8.20908 26.8444C8.4307 26.8444 8.62122 26.8011 8.78065 26.7144C8.93995 26.6278 9.01966 26.5049 9.01966 26.3454V24.1006H10.0486C10.8176 24.1006 11.436 23.905 11.9037 23.5135C12.3714 23.1221 12.6052 22.5141 12.6052 21.6895V21.6375C12.6053 20.8131 12.3818 20.2084 11.9349 19.8239ZM10.984 21.8142C10.984 22.5071 10.6721 22.8534 10.0486 22.8534H9.01973V20.6606H10.0486C10.6722 20.6606 10.984 21.0072 10.984 21.6998L10.984 21.8142ZM17.7184 19.8395C17.2541 19.4445 16.634 19.2471 15.8581 19.2471H14.0186C13.8107 19.2471 13.6408 19.2956 13.5093 19.3925C13.3776 19.4897 13.3118 19.604 13.3118 19.7355V26.3557C13.3118 26.4875 13.3777 26.6018 13.5093 26.6987C13.6409 26.7959 13.8107 26.8442 14.0186 26.8442H15.8581C16.6339 26.8442 17.2541 26.6467 17.7184 26.2518C18.1825 25.8569 18.4147 25.2369 18.4147 24.3915V21.6998C18.4146 20.8546 18.1824 20.2345 17.7184 19.8395ZM16.7934 24.3916C16.7934 25.0845 16.4816 25.4309 15.858 25.4309H14.9331V20.6606H15.858C16.4816 20.6606 16.7934 21.0072 16.7934 21.6999V24.3916ZM24.1202 19.455C24.0371 19.3165 23.9158 19.2472 23.7565 19.2472H20.1502C19.9562 19.2472 19.7899 19.2906 19.6514 19.3772C19.5127 19.4639 19.4436 19.5868 19.4436 19.7461V26.3456C19.4436 26.505 19.5231 26.6279 19.6826 26.7145C19.8418 26.8013 20.0324 26.8445 20.2542 26.8445C20.4758 26.8445 20.6663 26.8013 20.8258 26.7145C20.9851 26.6279 21.0648 26.5051 21.0648 26.3456V23.6641H22.6341C22.7934 23.6641 22.9147 23.6018 22.9979 23.4771C23.081 23.3524 23.1226 23.2105 23.1226 23.051C23.1226 22.8779 23.0793 22.7288 22.9927 22.604C22.9059 22.4793 22.7864 22.417 22.6341 22.417H21.0648V20.6606H23.7565C23.9088 20.6606 24.0283 20.5914 24.115 20.4528C24.2016 20.3142 24.245 20.1446 24.245 19.9435C24.245 19.7565 24.2034 19.5937 24.1202 19.455Z" fill="white"/>
</svg>
