<svg width="22" height="20" viewBox="0 0 22 20" fill="none" xmlns="http://www.w3.org/2000/svg">
<path d="M20.7695 4.15234V7.1875H1V4.15234C1 3.47272 1.55084 2.92188 2.23047 2.92188H19.5391C20.2187 2.92188 20.7695 3.47272 20.7695 4.15234Z" stroke="#E8C369" stroke-miterlimit="10" stroke-linecap="round" stroke-linejoin="round"/>
<path d="M4.32227 4.5625V1.28125V4.5625Z" fill="#5D9B99"/>
<path d="M4.32227 4.5625V1.28125" stroke="#E8C369" stroke-miterlimit="10" stroke-linecap="round" stroke-linejoin="round"/>
<path d="M10.8848 4.5625V1.28125V4.5625Z" fill="#5D9B99"/>
<path d="M10.8848 4.5625V1.28125" stroke="#E8C369" stroke-miterlimit="10" stroke-linecap="round" stroke-linejoin="round"/>
<path d="M17.4473 4.5625V1.28125V4.5625Z" fill="#5D9B99"/>
<path d="M17.4473 4.5625V1.28125" stroke="#E8C369" stroke-miterlimit="10" stroke-linecap="round" stroke-linejoin="round"/>
<path d="M4.97852 10.4688H6.29102H4.97852Z" fill="#5D9B99"/>
<path d="M4.97852 10.4688H6.29102" stroke="#E8C369" stroke-miterlimit="10" stroke-linecap="round" stroke-linejoin="round"/>
<path d="M4.97852 13.0938H6.29102H4.97852Z" fill="#5D9B99"/>
<path d="M4.97852 13.0938H6.29102" stroke="#E8C369" stroke-miterlimit="10" stroke-linecap="round" stroke-linejoin="round"/>
<path d="M4.97852 15.7188H6.29102H4.97852Z" fill="#5D9B99"/>
<path d="M4.97852 15.7188H6.29102" stroke="#E8C369" stroke-miterlimit="10" stroke-linecap="round" stroke-linejoin="round"/>
<path d="M10.2285 10.4688H11.541H10.2285Z" fill="#5D9B99"/>
<path d="M10.2285 10.4688H11.541" stroke="#E8C369" stroke-miterlimit="10" stroke-linecap="round" stroke-linejoin="round"/>
<path d="M10.2285 13.0938H11.541H10.2285Z" fill="#5D9B99"/>
<path d="M10.2285 13.0938H11.541" stroke="#E8C369" stroke-miterlimit="10" stroke-linecap="round" stroke-linejoin="round"/>
<path d="M10.2285 15.7188H11.541H10.2285Z" fill="#5D9B99"/>
<path d="M10.2285 15.7188H11.541" stroke="#E8C369" stroke-miterlimit="10" stroke-linecap="round" stroke-linejoin="round"/>
<path d="M15.4785 10.4688H16.791H15.4785Z" fill="#5D9B99"/>
<path d="M15.4785 10.4688H16.791" stroke="#E8C369" stroke-miterlimit="10" stroke-linecap="round" stroke-linejoin="round"/>
<path d="M15.4785 13.0938H16.791H15.4785Z" fill="#5D9B99"/>
<path d="M15.4785 13.0938H16.791" stroke="#E8C369" stroke-miterlimit="10" stroke-linecap="round" stroke-linejoin="round"/>
<path d="M15.4785 15.7188H16.791H15.4785Z" fill="#5D9B99"/>
<path d="M15.4785 15.7188H16.791" stroke="#E8C369" stroke-miterlimit="10" stroke-linecap="round" stroke-linejoin="round"/>
<path d="M19.5391 19H2.23047C1.55092 19 1 18.4491 1 17.7695V4.15235C1 3.4728 1.55092 2.92188 2.23047 2.92188H19.5391C20.2186 2.92188 20.7695 3.4728 20.7695 4.15235V17.7695C20.7695 18.4491 20.2186 19 19.5391 19Z" stroke="#E8C369" stroke-miterlimit="10" stroke-linecap="round" stroke-linejoin="round"/>
</svg>
